<svg id="visual" viewBox="0 0 960 100" width="960" height="100" xmlns="http://www.w3.org/2000/svg" xmlns:xlink="http://www.w3.org/1999/xlink" version="1.1"><rect x="0" y="0" width="960" height="100" fill="#0f172a"></rect><path d="M0 60L22.8 64.3C45.7 68.7 91.3 77.3 137 80.8C182.7 84.3 228.3 82.7 274 82.2C319.7 81.7 365.3 82.3 411.2 81.5C457 80.7 503 78.3 548.8 76.2C594.7 74 640.3 72 686 72C731.7 72 777.3 74 823 73.2C868.7 72.3 914.3 68.7 937.2 66.8L960 65L960 0L937.2 0C914.3 0 868.7 0 823 0C777.3 0 731.7 0 686 0C640.3 0 594.7 0 548.8 0C503 0 457 0 411.2 0C365.3 0 319.7 0 274 0C228.3 0 182.7 0 137 0C91.3 0 45.7 0 22.8 0L0 0Z" fill="#0ea5e9"></path><path d="M0 56L22.8 55.2C45.7 54.3 91.3 52.7 137 50.7C182.7 48.7 228.3 46.3 274 46.8C319.7 47.3 365.3 50.7 411.2 52.5C457 54.3 503 54.7 548.8 55C594.7 55.3 640.3 55.7 686 56.7C731.7 57.7 777.3 59.3 823 57.7C868.7 56 914.3 51 937.2 48.5L960 46L960 0L937.2 0C914.3 0 868.7 0 823 0C777.3 0 731.7 0 686 0C640.3 0 594.7 0 548.8 0C503 0 457 0 411.2 0C365.3 0 319.7 0 274 0C228.3 0 182.7 0 137 0C91.3 0 45.7 0 22.8 0L0 0Z" fill="#2f78aa"></path><path d="M0 30L22.8 32.7C45.7 35.3 91.3 40.7 137 42.8C182.7 45 228.3 44 274 42.7C319.7 41.3 365.3 39.7 411.2 37.5C457 35.3 503 32.7 548.8 33C594.7 33.3 640.3 36.7 686 38.8C731.7 41 777.3 42 823 43.2C868.7 44.3 914.3 45.7 937.2 46.3L960 47L960 0L937.2 0C914.3 0 868.7 0 823 0C777.3 0 731.7 0 686 0C640.3 0 594.7 0 548.8 0C503 0 457 0 411.2 0C365.3 0 319.7 0 274 0C228.3 0 182.7 0 137 0C91.3 0 45.7 0 22.8 0L0 0Z" fill="#2d4f6e"></path><path d="M0 20L22.8 19C45.7 18 91.3 16 137 15.5C182.7 15 228.3 16 274 15.2C319.7 14.3 365.3 11.7 411.2 13C457 14.3 503 19.7 548.8 22C594.7 24.3 640.3 23.7 686 22.7C731.7 21.7 777.3 20.3 823 20C868.7 19.7 914.3 20.3 937.2 20.7L960 21L960 0L937.2 0C914.3 0 868.7 0 823 0C777.3 0 731.7 0 686 0C640.3 0 594.7 0 548.8 0C503 0 457 0 411.2 0C365.3 0 319.7 0 274 0C228.3 0 182.7 0 137 0C91.3 0 45.7 0 22.8 0L0 0Z" fill="#1f2937"></path></svg>