<svg id="visual" viewBox="0 0 960 87" width="960" height="87" xmlns="http://www.w3.org/2000/svg" xmlns:xlink="http://www.w3.org/1999/xlink" version="1.1"><rect x="0" y="0" width="960" height="87" fill="#FFFFFF"></rect><path d="M0 64L20 63.8C40 63.7 80 63.3 120 63.3C160 63.3 200 63.7 240 60.8C280 58 320 52 360 50.8C400 49.7 440 53.3 480 56.7C520 60 560 63 600 61.2C640 59.3 680 52.7 720 51.7C760 50.7 800 55.3 840 56.3C880 57.3 920 54.7 940 53.3L960 52L960 0L940 0C920 0 880 0 840 0C800 0 760 0 720 0C680 0 640 0 600 0C560 0 520 0 480 0C440 0 400 0 360 0C320 0 280 0 240 0C200 0 160 0 120 0C80 0 40 0 20 0L0 0Z" fill="#fa7268"></path><path d="M0 37L20 38.2C40 39.3 80 41.7 120 44C160 46.3 200 48.7 240 47.7C280 46.7 320 42.3 360 40.5C400 38.7 440 39.3 480 39.7C520 40 560 40 600 39C640 38 680 36 720 36.5C760 37 800 40 840 42.7C880 45.3 920 47.7 940 48.8L960 50L960 0L940 0C920 0 880 0 840 0C800 0 760 0 720 0C680 0 640 0 600 0C560 0 520 0 480 0C440 0 400 0 360 0C320 0 280 0 240 0C200 0 160 0 120 0C80 0 40 0 20 0L0 0Z" fill="#eb5967"></path><path d="M0 29L20 28.3C40 27.7 80 26.3 120 25.8C160 25.3 200 25.7 240 27.2C280 28.7 320 31.3 360 32.5C400 33.7 440 33.3 480 33.2C520 33 560 33 600 33.3C640 33.7 680 34.3 720 32.7C760 31 800 27 840 26.5C880 26 920 29 940 30.5L960 32L960 0L940 0C920 0 880 0 840 0C800 0 760 0 720 0C680 0 640 0 600 0C560 0 520 0 480 0C440 0 400 0 360 0C320 0 280 0 240 0C200 0 160 0 120 0C80 0 40 0 20 0L0 0Z" fill="#da3f67"></path><path d="M0 12L20 13C40 14 80 16 120 16.3C160 16.7 200 15.3 240 15.7C280 16 320 18 360 18.7C400 19.3 440 18.7 480 17.5C520 16.3 560 14.7 600 15.5C640 16.3 680 19.7 720 20.7C760 21.7 800 20.3 840 19.5C880 18.7 920 18.3 940 18.2L960 18L960 0L940 0C920 0 880 0 840 0C800 0 760 0 720 0C680 0 640 0 600 0C560 0 520 0 480 0C440 0 400 0 360 0C320 0 280 0 240 0C200 0 160 0 120 0C80 0 40 0 20 0L0 0Z" fill="#c62368"></path></svg>